<svg width="82" height="81" viewBox="0 0 82 81" fill="none" xmlns="http://www.w3.org/2000/svg">
<path d="M0.356339 45.5595C1.2608 52.2951 3.86081 58.6925 7.91382 64.1548C11.9668 69.6171 17.3408 73.9664 23.5344 76.7969C29.7279 79.6274 36.5393 80.847 43.3331 80.3418C50.1269 79.8366 56.6818 77.6232 62.3862 73.9079L77.928 79.1783C78.3968 79.3325 78.9001 79.3494 79.3783 79.2272C79.8565 79.1051 80.2896 78.8488 80.6264 78.4888C80.9633 78.1289 81.1897 77.6802 81.2789 77.1959C81.3682 76.7116 81.3166 76.2119 81.1301 75.756L74.8974 60.9258C78.2123 55.4173 80.1561 49.1967 80.5662 42.785C80.9763 36.3732 79.8407 29.9567 77.2544 24.0726C74.6682 18.1884 70.7066 13.0079 65.7013 8.96451C60.6959 4.92115 54.7924 2.13264 48.4848 0.83237C42.1773 -0.467899 35.6493 -0.242088 29.4472 1.4909C23.2452 3.2239 17.5495 6.41365 12.8369 10.7932C8.12436 15.1727 4.53204 20.6145 2.36065 26.6632C0.189263 32.7119 -0.498017 39.1915 0.356339 45.5595Z" fill="#98bebe"/>
<path fill-rule="evenodd" clip-rule="evenodd" d="M33.022 52.0102C33.022 46.9054 36.7851 43.1715 40.9467 43.1715C45.1084 43.1715 48.8715 46.9054 48.8715 52.0102H54.2391C54.2391 44.4044 48.5029 37.8344 40.9467 37.8344C33.3905 37.8344 27.6543 44.4044 27.6543 52.0102H33.022Z" fill="white"/>
<path d="M26.4805 37.6261C29.1437 37.6261 31.3026 35.4795 31.3026 32.8314C31.3026 30.1834 29.1437 28.0367 26.4805 28.0367C23.8174 28.0367 21.6584 30.1834 21.6584 32.8314C21.6584 35.4795 23.8174 37.6261 26.4805 37.6261Z" fill="white"/>
<path d="M55.4129 37.6261C58.0761 37.6261 60.235 35.4795 60.235 32.8314C60.235 30.1834 58.0761 28.0367 55.4129 28.0367C52.7497 28.0367 50.5908 30.1834 50.5908 32.8314C50.5908 35.4795 52.7497 37.6261 55.4129 37.6261Z" fill="white"/>
</svg>
