<svg width="32" height="32" viewBox="0 0 32 32" fill="none" xmlns="http://www.w3.org/2000/svg">
<circle cx="16" cy="16" r="16" fill="#ebf8f8"/>
<path d="M12.385 18.3198C11.4419 18.8814 8.96891 20.0281 10.4751 21.4631C11.2109 22.164 12.0303 22.6654 13.0606 22.6654H18.9394C19.9697 22.6654 20.7891 22.164 21.5249 21.4631C23.0311 20.0281 20.5581 18.8814 19.6149 18.3198C17.4032 17.0028 14.5968 17.0028 12.385 18.3198Z" stroke="#0f5050" stroke-width="1.5" stroke-linecap="round" stroke-linejoin="round"/>
<path d="M19 12.332C19 13.9889 17.6569 15.332 16 15.332C14.3431 15.332 13 13.9889 13 12.332C13 10.6752 14.3431 9.33203 16 9.33203C17.6569 9.33203 19 10.6752 19 12.332Z" stroke="#0f5050" stroke-width="1.5"/>
</svg>
