<svg width="14" height="12" viewBox="0 0 14 12" fill="none" xmlns="http://www.w3.org/2000/svg">
<path d="M12.9331 5.58056L12.8419 5.48636C12.1986 4.82141 11.8981 3.89683 12.0275 2.98072L12.0458 2.85115C12.0913 2.52915 11.8732 2.22931 11.5529 2.17273L11.4241 2.15014C10.5127 1.99029 9.72602 1.41878 9.2923 0.601373L9.23125 0.486314C9.07958 0.199897 8.72667 0.0849803 8.435 0.227897L8.31704 0.285534C7.48597 0.691612 6.51403 0.691612 5.68296 0.285534L5.565 0.227897C5.27333 0.0849803 4.92042 0.199897 4.76817 0.486897L4.70704 0.60214C4.27338 1.41978 3.48659 1.99149 2.57498 2.15136L2.4465 2.1739C2.12625 2.2299 1.90808 2.52973 1.95358 2.85173L1.97189 2.98131C2.10131 3.89742 1.8008 4.822 1.15748 5.48694L1.06633 5.58115C0.84 5.81506 0.84 6.18548 1.06633 6.4194L1.15748 6.5136C1.8008 7.17855 2.10131 8.10313 1.97189 9.01924L1.95358 9.14881C1.90808 9.47081 2.12625 9.77065 2.4465 9.82723L2.57529 9.84982C3.48673 10.0097 4.2734 10.5812 4.70712 11.3986L4.76817 11.5136C4.92042 11.8006 5.27333 11.9156 5.56558 11.7726L5.68246 11.7155C6.5138 11.3088 7.48632 11.3085 8.31786 11.7148L8.435 11.7721C8.72725 11.915 9.07958 11.8001 9.23242 11.5131L9.29347 11.398C9.72719 10.5806 10.5139 10.0091 11.4253 9.84923L11.5541 9.82665C11.8743 9.77065 12.0925 9.47023 12.047 9.14823L12.0287 9.01866C11.8993 8.10254 12.1998 7.17796 12.8431 6.51302L12.9342 6.41881C13.1588 6.18548 13.1588 5.81448 12.9331 5.58056ZM7.49788 7.4936C6.90074 8.09074 5.93259 8.09074 5.33546 7.4936L4.66667 6.82481C4.4389 6.59704 4.4389 6.22775 4.66667 5.99998C4.89444 5.77221 5.26373 5.77221 5.4915 5.99998L5.74788 6.25636C6.11724 6.62572 6.71609 6.62572 7.08546 6.25636L9.09183 4.24998C9.3196 4.02221 9.6889 4.02221 9.91667 4.24998C10.1444 4.47775 10.1444 4.84704 9.91667 5.07481L7.49788 7.4936Z" fill="#187070"/>
</svg>
